<svg width="502" height="502" viewBox="0 0 502 502" fill="none" xmlns="http://www.w3.org/2000/svg">
<path d="M252.512 50.1264C247.207 50.8271 242.136 53.5319 238.622 58.1335C231.594 67.3369 233.382 80.4379 242.543 87.4659L306.029 135.958H88.8958C74.4633 135.958 62.75 147.672 62.75 162.104C62.75 176.537 74.4633 188.25 88.8958 188.25H172.603L32.7232 299.656C19.1692 310.449 16.9461 330.203 27.7391 343.736C33.9514 351.538 43.1083 355.583 52.3325 355.583C59.1932 355.583 66.0872 353.383 71.8602 348.761L146.539 289.238C147.522 372.215 221.947 439.25 313.75 439.25C406.16 439.25 481.083 371.354 481.083 287.604C481.083 242.487 459.239 202.096 424.747 174.319C424.434 174.047 424.286 173.63 423.93 173.379L267.954 54.2117C263.363 50.7395 257.817 49.4257 252.512 50.1264ZM314.24 188.944C371.866 188.944 418.578 228.628 418.578 277.636C418.578 326.581 371.866 366.246 314.24 366.246C256.657 366.246 209.984 326.581 209.984 277.636C209.984 228.649 256.678 188.944 314.24 188.944ZM314.24 217.46C279.247 217.46 250.877 241.243 250.877 270.568C250.877 299.852 279.247 323.595 314.24 323.595C349.276 323.595 377.685 299.852 377.685 270.568C377.685 241.243 349.276 217.46 314.24 217.46Z" fill="white"/>
</svg>
