<svg width="235" height="339" viewBox="0 0 235 339" fill="none" xmlns="http://www.w3.org/2000/svg">
<path fill-rule="evenodd" clip-rule="evenodd" d="M28.7818 116.41C11.4548 105.114 0 85.5557 0 63.3201C0 28.3494 28.334 0 63.2856 0H171.714C206.666 0 235 28.3494 235 63.3201C235 85.5557 223.546 105.114 206.218 116.41C223.546 127.707 235 147.266 235 169.501C235 204.471 206.666 232.821 171.714 232.821H170.561C154.039 232.821 138.996 226.486 127.725 216.111V275.102C127.725 310.464 98.7709 339 63.5725 339C28.6926 339 0 310.722 0 275.68C0 253.445 11.4542 233.887 28.7807 222.59C11.4542 211.294 0 191.736 0 169.501C0 147.266 11.4548 127.707 28.7818 116.41ZM127.725 169.501C127.725 193.171 146.904 212.36 170.561 212.36H171.714C195.372 212.36 214.55 193.171 214.55 169.501C214.55 145.83 195.372 126.641 171.714 126.641H170.561C146.904 126.641 127.725 145.83 127.725 169.501ZM107.275 126.641H63.2856C39.6278 126.641 20.4498 145.83 20.4498 169.501C20.4498 193.123 39.5505 212.282 63.1416 212.36H63.2088H107.275V126.641ZM63.2856 232.821C63.2376 232.821 63.1896 232.821 63.1416 232.821C39.5505 232.898 20.4498 252.057 20.4498 275.68C20.4498 299.279 39.843 318.539 63.5725 318.539C87.6205 318.539 107.275 299.021 107.275 275.102V232.821H63.2856ZM107.275 106.179H63.2856C39.6278 106.179 20.4498 86.9908 20.4498 63.3201C20.4498 39.6494 39.6278 20.4609 63.2856 20.4609H107.275V106.179ZM171.714 106.179H127.725V20.4609H171.714C195.372 20.4609 214.55 39.6494 214.55 63.3201C214.55 86.9908 195.372 106.179 171.714 106.179Z" fill="white"/>
</svg>
