<svg width="480" height="480" viewBox="0 0 480 480" fill="none" xmlns="http://www.w3.org/2000/svg">
<path d="M240 48C133.968 48 48 133.968 48 240C48 329.968 109.952 405.248 193.472 426.08C192.576 423.488 192 420.48 192 416.752V383.936C184.208 383.936 171.152 383.936 167.872 383.936C154.736 383.936 143.056 378.288 137.392 367.792C131.104 356.128 130.016 338.288 114.432 327.376C109.808 323.744 113.328 319.6 118.656 320.16C128.496 322.944 136.656 329.696 144.336 339.712C151.984 349.744 155.584 352.016 169.872 352.016C176.8 352.016 187.168 351.616 196.928 350.08C202.176 336.752 211.248 324.48 222.336 318.688C158.4 312.112 127.888 280.304 127.888 237.12C127.888 218.528 135.808 200.544 149.264 185.392C144.848 170.352 139.296 139.68 150.96 128C179.728 128 197.12 146.656 201.296 151.696C215.632 146.784 231.376 144 247.92 144C264.496 144 280.304 146.784 294.672 151.728C298.8 146.72 316.208 128 345.04 128C356.752 139.696 351.136 170.496 346.672 185.504C360.048 200.624 367.92 218.56 367.92 237.12C367.92 280.272 337.456 312.064 273.616 318.672C291.184 327.84 304 353.6 304 373.008V416.752C304 418.416 303.632 419.616 303.44 421.04C378.256 394.816 432 323.776 432 240C432 133.968 346.032 48 240 48Z" fill="white"/>
</svg>
