<svg width="556" height="205" viewBox="0 0 556 205" fill="none" xmlns="http://www.w3.org/2000/svg">
<path d="M162.02 95.4592V95.5478L154.705 127.327C154.31 129.125 152.513 130.447 150.445 130.447H141.605C141.287 130.448 140.978 130.551 140.723 130.741C140.469 130.931 140.282 131.198 140.19 131.503C132.037 159.187 121 178.221 106.424 189.645C94.0254 199.373 78.7417 203.903 58.3202 203.903C39.9743 203.903 27.603 197.997 17.1099 186.341C3.24836 170.918 -2.48135 145.699 0.989139 115.303C7.24282 58.2373 36.81 0.653736 93.7396 0.653736C111.058 0.497055 124.654 5.84464 134.113 16.5262C144.116 27.814 149.193 44.8241 149.22 67.0796C149.195 68.0555 148.791 68.9831 148.093 69.6651C147.395 70.3471 146.459 70.7295 145.484 70.7309H103.77C103.039 70.7085 102.345 70.4064 101.829 69.8868C101.314 69.3673 101.018 68.6698 101 67.9379C100.66 52.5491 96.1009 45.0489 87.0368 45.0489C71.0454 45.0489 61.6138 66.7798 56.6122 78.8306C49.6236 95.6568 46.0647 113.927 46.7656 132.129C47.099 140.604 48.46 152.525 56.4965 157.457C63.6212 161.837 73.7877 158.935 79.9461 154.085C86.0977 149.242 91.0517 140.856 93.134 133.206C93.4266 132.143 93.447 131.319 93.168 130.944C92.8754 130.569 92.0656 130.481 91.4464 130.481H80.7355C80.1686 130.483 79.6081 130.36 79.0933 130.123C78.5784 129.885 78.1217 129.538 77.755 129.105C77.4736 128.767 77.2738 128.369 77.1711 127.941C77.0684 127.513 77.0656 127.068 77.1629 126.639L84.485 94.7985C84.8457 93.1635 86.3223 91.9373 88.1392 91.7125V91.6376H158.434C158.597 91.6376 158.767 91.6376 158.924 91.6717C160.747 91.9033 162.033 93.6063 161.999 95.4592H162.02Z" fill="white"/>
<path d="M283.038 58.9256C283.008 59.8955 282.602 60.8155 281.905 61.4907C281.209 62.166 280.278 62.5433 279.309 62.5429H240.888C238.371 62.5429 236.268 60.4992 236.268 58.0128C236.268 46.7862 232.389 41.3229 224.455 41.3229C216.52 41.3229 211.403 46.2072 211.253 54.7293C211.083 64.2323 216.452 72.8634 231.736 87.7004C251.858 106.597 259.922 123.342 259.534 145.468C258.901 181.239 234.601 204.366 197.623 204.366C178.739 204.366 164.313 199.305 154.718 189.332C144.98 179.209 140.516 164.345 141.449 145.155C141.48 144.185 141.888 143.265 142.586 142.591C143.283 141.917 144.215 141.542 145.185 141.544H184.925C185.479 141.554 186.024 141.686 186.521 141.933C187.017 142.179 187.453 142.532 187.797 142.968C188.097 143.327 188.317 143.746 188.441 144.197C188.566 144.649 188.592 145.121 188.518 145.584C188.076 152.505 189.28 157.675 192.002 160.536C193.744 162.389 196.173 163.33 199.202 163.33C206.544 163.33 210.845 158.132 211.008 149.092C211.144 141.272 208.674 134.412 195.214 120.549C177.828 103.546 162.238 85.9769 162.721 58.3534C163.006 42.3379 169.362 27.6848 180.624 17.0986C192.533 5.913 208.817 0 227.721 0C246.659 0.136244 261.01 5.53832 270.381 16.07C279.254 26.0567 283.528 40.4713 283.051 58.9188L283.038 58.9256Z" fill="white"/>
<path d="M402.137 197.636L402.388 7.35758C402.396 6.88105 402.308 6.40787 402.13 5.96585C401.952 5.52383 401.687 5.12187 401.352 4.78361C401.017 4.44535 400.617 4.1776 400.177 3.99609C399.737 3.81458 399.265 3.72298 398.789 3.72667H339.328C337.327 3.72667 336.449 5.44335 335.878 6.5878L249.782 196.478V196.512L249.748 196.553C248.796 198.89 250.606 201.39 253.13 201.39H294.694C296.94 201.39 298.424 200.708 299.159 199.292L307.413 179.434C308.427 176.791 308.617 176.546 311.503 176.546H351.216C353.979 176.546 354.04 176.6 353.992 179.305L353.101 197.766C353.094 198.242 353.183 198.714 353.361 199.155C353.54 199.596 353.804 199.998 354.14 200.335C354.475 200.673 354.874 200.94 355.314 201.121C355.754 201.302 356.225 201.393 356.701 201.39H398.687C399.207 201.397 399.722 201.289 400.195 201.075C400.669 200.861 401.09 200.545 401.429 200.15C401.721 199.807 401.936 199.405 402.058 198.971C402.18 198.537 402.207 198.081 402.137 197.636ZM328.576 134.106C328.188 134.106 327.882 134.099 327.637 134.071C327.492 134.06 327.35 134.017 327.224 133.946C327.097 133.874 326.987 133.775 326.903 133.656C326.818 133.537 326.761 133.401 326.735 133.257C326.709 133.113 326.715 132.966 326.752 132.825C326.834 132.546 326.95 132.178 327.113 131.714L356.898 57.9587C357.156 57.2298 357.483 56.5145 357.823 55.8196C358.306 54.8319 358.892 54.7637 359.075 55.4995C359.232 56.1126 355.659 131.238 355.659 131.238C355.38 134.051 355.251 134.167 352.482 134.398L328.603 134.119H328.549L328.576 134.106Z" fill="white"/>
<path d="M486.851 3.72649H455.283C453.616 3.72649 451.744 4.61208 451.302 6.60124L407.376 197.541C407.279 197.972 407.283 198.42 407.387 198.85C407.491 199.28 407.692 199.681 407.975 200.02C408.341 200.452 408.797 200.799 409.31 201.037C409.824 201.274 410.383 201.397 410.949 201.396H450.404C452.52 201.396 453.976 200.354 454.371 198.549C454.371 198.549 459.155 176.968 459.161 176.9C459.502 175.217 458.917 173.909 457.406 173.119C456.691 172.751 455.984 172.383 455.283 172.008L448.444 168.452L441.639 164.897L439.005 163.527C438.792 163.419 438.614 163.253 438.491 163.049C438.369 162.844 438.306 162.608 438.311 162.369C438.32 162.017 438.466 161.682 438.717 161.435C438.969 161.188 439.307 161.049 439.659 161.048L461.285 161.143C467.749 161.177 474.221 160.721 480.583 159.549C525.359 151.272 555.097 115.372 555.954 66.5214C556.682 24.8307 533.437 3.70605 486.885 3.70605L486.851 3.72649ZM476.106 117.354H475.262C473.37 117.354 473.03 117.15 472.969 117.082C472.941 117.034 485.442 62.0867 485.449 62.0117C485.769 60.4245 485.755 59.5117 484.775 58.9735C483.523 58.2787 465.272 48.6462 465.272 48.6462C465.059 48.5351 464.882 48.3663 464.761 48.1591C464.639 47.9519 464.578 47.7147 464.585 47.4745C464.594 47.1245 464.739 46.7918 464.989 46.5475C465.24 46.3031 465.576 46.1664 465.926 46.1665H494.785C503.767 46.439 508.776 54.4843 508.538 68.2177C508.123 92.0059 496.827 116.516 476.106 117.361V117.354Z" fill="white"/>
</svg>
