<svg width="500" height="500" viewBox="0 0 500 500" fill="none" xmlns="http://www.w3.org/2000/svg">
<path d="M452.734 23.2422C450.859 21.1719 448.164 20 445.352 20H54.6485C51.836 20 49.1407 21.1719 47.2657 23.2422C45.3516 25.3125 44.4141 28.0859 44.6875 30.8984L79.8828 425.156C80.2344 429.297 83.125 432.734 87.1094 433.906L247.227 479.609C248.086 479.883 249.023 480 249.961 480C250.898 480 251.797 479.883 252.695 479.609L412.93 433.906C416.914 432.734 419.766 429.297 420.156 425.156L455.313 30.8984C455.586 28.0859 454.649 25.3125 452.734 23.2422ZM368.477 159.18H180.352L184.844 210.078H363.945L350.508 360.508L249.922 390.898L248.945 390.586L149.531 360.469L144.102 299.18H192.813L194.922 322.969L250.508 334.609L305.078 322.969L310.898 258.594H140.469L127.227 110.547H372.813L368.477 159.18Z" fill="white"/>
</svg>
