<svg width="500" height="500" viewBox="0 0 500 500" fill="none" xmlns="http://www.w3.org/2000/svg">
<path d="M433.359 40H66.6797C51.9531 40 40 51.9531 40 66.6797V433.32C40 448.047 51.9531 460 66.6797 460H433.32C448.047 460 460 448.047 460 433.359V66.6797C460 51.9531 448.047 40 433.359 40ZM270 361.836C270 401.797 246.562 420 212.344 420C181.406 420 159.102 399.258 150 380L181.445 360.977C187.5 371.719 196.719 380 210 380C222.695 380 230 375.039 230 355.742V230H270V361.836ZM356.758 420C321.328 420 301.211 402.148 290 380L320 360C328.164 373.359 337.07 386.133 355.898 386.133C371.719 386.133 380 378.242 380 367.305C380 354.258 371.406 349.609 354.023 341.992L344.492 337.891C316.953 326.172 298.633 311.484 298.633 280.391C298.633 251.797 320.469 230 354.531 230C378.789 230 396.211 238.437 408.789 260.547L379.102 279.648C372.539 267.891 365.508 263.281 354.531 263.281C343.359 263.281 336.289 270.391 336.289 279.648C336.289 291.094 343.359 295.703 359.727 302.812L369.258 306.914C401.719 320.781 420 334.961 420 366.836C420 401.172 393.008 420 356.758 420Z" fill="white"/>
</svg>
