<svg width="512" height="512" viewBox="0 0 512 512" fill="none" xmlns="http://www.w3.org/2000/svg">
<path d="M256 32.75C247.58 32.75 239.175 34.959 231.688 39.375L87.6875 124.125C73.0635 132.701 64 148.572 64 165.5V352.188C64 369.756 73.576 385.896 89 394.312L136.188 420.062C143.451 424.03 151.315 425.938 159.188 425.938C167.635 425.938 175.977 423.668 183.625 419.188C198.345 410.451 207.125 395.027 207.125 377.875V174.875H175.125V377.875C175.125 386.099 169.681 390.249 167.312 391.625C164.977 393.001 158.7 395.874 151.5 391.938L104.375 366.25C99.223 363.434 96 358.043 96 352.188V165.5C96 159.868 99.011 154.568 103.875 151.688L247.875 66.9375C252.867 63.9935 259.133 64.0255 264.125 66.9375L408.125 151.688C412.957 154.568 416 159.868 416 165.5V352.312C416 358.073 412.807 363.495 407.688 366.375L263.688 444.812C258.887 447.372 253.113 447.372 248.312 444.812L220.188 429.438C214.747 436.157 208 441.95 200 446.75C197.44 448.35 194.872 449.603 192.312 450.562L232.938 472.938C240.298 476.777 248 478.75 256 478.75C264 478.75 271.702 476.777 279.062 472.938L423.062 394.25C438.422 385.93 448 369.913 448 352.312V165.5C448 148.572 438.967 132.701 424.375 124.125L280.375 39.375C272.871 34.959 264.42 32.75 256 32.75ZM302.438 170.188C251.877 170.188 226.25 187.811 226.25 222.562C226.25 261.923 271.583 267.779 293.375 270.562C296.511 270.979 299.292 271.334 301.5 271.75L311.062 273.438C344.342 279.005 352 282.78 352 293.5C352 298.684 351.974 314.375 302.438 314.375C260.422 314.375 251.812 301.907 251.812 283.188H219.812C219.812 312.052 234.149 346.375 302.438 346.375C369.83 346.375 384 317.628 384 293.5C384 253.244 344.887 246.644 316.375 241.812L307.188 240.25C304.532 239.77 301.181 239.323 297.438 238.875C277.086 236.251 258.25 232.481 258.25 222.625C258.25 215.489 258.214 202.22 302.438 202.188C331.846 202.188 346.812 211.865 346.812 230.938H378.812C378.812 201.594 358.694 170.188 302.438 170.188Z" fill="white"/>
</svg>
