<svg width="500" height="500" viewBox="0 0 500 500" fill="none" xmlns="http://www.w3.org/2000/svg">
<path d="M177.995 69.6943C167.811 69.6943 158.367 71.974 150 76.7907C123.852 91.8872 113.899 128.676 119.173 174.479C76.8783 192.814 50 219.811 50 250C50 280.189 76.8783 307.186 119.173 325.521C113.902 371.323 123.852 408.113 150 423.21C158.35 428.027 167.795 430.306 177.995 430.306C199.705 430.306 224.797 419.41 250 400.716C275.205 419.41 300.327 430.306 322.038 430.306C332.221 430.306 341.666 428.027 350.033 423.21C376.18 408.114 386.133 371.324 380.859 325.521C423.138 307.187 450 280.183 450 250C450 219.811 423.122 192.814 380.827 174.479C386.098 128.678 376.148 91.8872 350 76.7907C341.65 71.9574 332.205 69.6943 322.005 69.6943C300.295 69.6943 275.202 80.5905 250 99.2842C224.796 80.5905 199.698 69.6943 177.995 69.6943ZM177.995 98.861C191.022 98.861 208.249 105.788 226.953 118.62C215.956 128.998 205.186 140.799 194.824 153.939C178.018 156.349 162.172 159.862 147.493 164.258C147.415 163.24 147.228 162.172 147.168 161.166C145.385 131.499 151.9 109.384 164.583 102.051C168.333 99.8844 172.711 98.861 177.995 98.861ZM322.005 98.861C327.272 98.861 331.667 99.8844 335.417 102.051C348.1 109.368 354.615 131.499 352.832 161.166C352.772 162.172 352.586 163.24 352.506 164.258C337.818 159.859 321.961 156.349 305.143 153.939C294.782 140.801 284.044 128.997 273.047 118.62C291.749 105.79 308.985 98.861 322.005 98.861ZM250 137.142C254.518 141.254 259.004 145.601 263.542 150.358C259.045 150.207 254.573 150 250 150C245.438 150 240.977 150.208 236.491 150.358C241.024 145.606 245.486 141.251 250 137.142ZM250 179.167C263.811 179.167 276.902 179.939 289.323 181.283C296.898 191.579 304.363 202.464 311.361 214.584C318.068 226.201 323.999 238.092 329.232 250C323.998 261.916 318.072 273.825 311.361 285.45C304.385 297.534 296.938 308.349 289.388 318.62C276.529 320.027 263.337 320.834 250 320.834C236.189 320.834 223.098 320.062 210.677 318.718C203.102 308.422 195.637 297.569 188.639 285.45C181.928 273.825 176.003 261.916 170.768 250C176 238.092 181.932 226.201 188.639 214.584C195.618 202.499 203.06 191.651 210.612 181.381C223.471 179.974 236.663 179.167 250 179.167ZM329.102 188.184C335.714 189.78 342.071 191.504 348.047 193.425C346.693 199.542 345.037 205.777 343.164 212.077C341.019 208.053 338.94 204.015 336.621 200C334.236 195.87 331.587 192.16 329.102 188.184ZM170.866 188.216C168.388 192.18 165.757 195.884 163.379 200C161.061 204.016 158.98 208.052 156.836 212.077C154.958 205.764 153.276 199.522 151.921 193.392C158.006 191.469 164.347 189.767 170.866 188.216ZM124.479 204.102C127.991 218.929 132.862 234.299 139.128 249.968C132.875 265.599 128.025 280.941 124.512 295.736C95.4872 281.72 79.1667 264.273 79.1667 250C79.1667 235.35 95.0312 218.655 121.615 205.371C122.522 204.917 123.552 204.545 124.479 204.102ZM375.488 204.265C404.513 218.28 420.833 235.727 420.833 250C420.833 264.65 404.969 281.346 378.385 294.629C377.478 295.083 376.448 295.455 375.521 295.899C372.007 281.063 367.176 265.679 360.905 250C367.15 234.382 371.978 219.047 375.488 204.265ZM250 216.667C231.583 216.667 216.667 231.584 216.667 250C216.667 268.417 231.583 283.334 250 283.334C268.417 283.334 283.333 268.417 283.333 250C283.333 231.584 268.417 216.667 250 216.667ZM156.836 287.923C158.981 291.949 161.092 295.984 163.411 300C165.794 304.127 168.415 307.844 170.898 311.817C164.286 310.22 157.929 308.497 151.953 306.576C153.308 300.454 154.961 294.228 156.836 287.923ZM343.164 287.956C345.039 294.263 346.725 300.484 348.079 306.608C341.994 308.531 335.653 310.234 329.134 311.784C331.612 307.821 334.243 304.117 336.621 300C338.934 295.993 341.024 291.973 343.164 287.956ZM147.493 335.743C162.182 340.142 178.039 343.652 194.857 346.062C205.221 359.206 215.951 371.033 226.953 381.413C208.251 394.242 191.021 401.172 177.995 401.172C172.728 401.172 168.333 400.116 164.583 397.95C151.9 390.633 145.385 368.534 147.168 338.868C147.229 337.851 147.413 336.771 147.493 335.743ZM352.506 335.743C352.586 336.771 352.771 337.851 352.832 338.868C354.615 368.534 348.1 390.616 335.417 397.95C331.667 400.116 327.289 401.172 322.005 401.172C308.979 401.172 291.749 394.244 273.047 381.413C284.049 371.031 294.809 359.208 305.176 346.062C321.982 343.652 337.828 340.139 352.506 335.743ZM236.458 349.642C240.955 349.793 245.427 350 250 350C254.573 350 259.045 349.793 263.542 349.642C259.004 354.4 254.518 358.746 250 362.858C245.482 358.746 240.996 354.4 236.458 349.642Z" fill="white"/>
</svg>
