<svg width="512" height="512" viewBox="0 0 512 512" fill="none" xmlns="http://www.w3.org/2000/svg">
<path d="M155.04 76.48L116 112.24L80.8 148.08L56.08 48L155.04 76.48ZM84.8 164.4L107.28 255.52L175.04 190.32L84.8 164.4ZM179.52 174.96L159.6 94.32L99.76 152L179.52 174.96ZM111.76 273.52L133.92 363.12L200.4 299.04L111.76 273.52ZM125.04 260.64L206.56 284.16L186.24 201.84L125.04 260.64ZM232.64 390L212.72 309.36L152.8 367.12L232.64 390ZM162.96 480.88L238.4 408.32L137.92 379.44L162.96 480.88ZM261.52 107.2L173.04 81.68L195.04 171.04L261.52 107.2ZM201.68 197.84L221.6 278.48L281.52 220.72L201.68 197.84ZM285.68 205.28L265.84 125.12L206.24 182.48L285.68 205.28ZM292.4 232.48L231.36 291.28L312.64 314.72L292.4 232.48ZM250.72 396.48L317.12 332.64L228.72 307.2L250.72 396.48ZM367.92 137.84L279.2 112.24L301.36 202L367.92 137.84ZM392.4 236.24L372.48 155.6L312.56 213.36L392.4 236.24ZM330.4 319.84L398.24 254.56L307.92 228.64L330.4 319.84ZM385.84 142.96L410.48 242.88L484.72 171.44L385.84 142.96Z" fill="white"/>
</svg>
